{"title":"True.Blood.S05E01.HDTV.XviD-Atilla82","uid":7355824,"size":418925231,"categoryP":"video","categoryS":"tv_shows","magnet":"?xt=urn:btih:2dc2f00440d036e38db657797c76c9b6561c76ff&amp;dn=True.Blood.S05E01.HDTV.XviD-Atilla82&amp;tr=udp%3A%2F%2Ftracker.openbittorrent.com%3A80&amp;tr=udp%3A%2F%2Fopen.demonii.com%3A1337&amp;tr=udp%3A%2F%2Ftracker.coppersurfer.tk%3A6969&amp;tr=udp%3A%2F%2Fexodus.desync.com%3A6969","seeders":1,"leechers":0,"uploader":"Atilla82","files":4,"time":1339767767,"description":"True Blood S05E01 HDTV XviD-Atilla82\n\n &lt;a href=&quot;\nhttp://www.imdb.com/title/tt0844441/&quot; rel=&quot;nofollow&quot; target=&quot;_NEW&quot;&gt;\nhttp://www.imdb.com/title/tt0844441/&lt;/a&gt; [rate:8.0/10] 60,085 votes\n \n\n\nIn a world where vampires have &quot;come out of the coffin&quot;, Sookie Stackhouse, a telepathic waitress, discovers a new world of different creatures when she meets Bill Compton, a vampire.\n\n\n\nGeneral\nComplete name : True.Blood.S05E01.HDTV.XviD-Atilla82.avi\nFormat : AVI\nFormat/Info : Audio Video Interleave\nFile size : 399 MiB\nDuration : 54mn 14s\nOverall bit rate : 1 029 Kbps\nWriting application : Lavf53.5.0\n\nVideo\nID : 0\nFormat : MPEG-4 Visual\nFormat profile : Advanced Simple@L5\nFormat settings, BVOP : No\nFormat settings, QPel : Yes\nFormat settings, GMC : No warppoints\nFormat settings, Matrix : Default (H.263)\nCodec ID : XVID\nCodec ID/Hint : XviD\nDuration : 54mn 14s\nBit rate : 889 Kbps\nWidth : 680 pixels\nHeight : 380 pixels\nDisplay aspect ratio : 16:9\nFrame rate : 23.976 fps\nColor space : YUV\nChroma subsampling : 4:2:0\nBit depth : 8 bits\nScan type : Progressive\nCompression mode : Lossy\nBits/(Pixel*Frame) : 0.143\nStream size : 345 MiB (86%)\nWriting library : XviD 64\n\nAudio\nID : 1\nFormat : MPEG Audio\nFormat version : Version 1\nFormat profile : Layer 3\nMode : Joint stereo\nMode extension : MS Stereo\nCodec ID : 55\nCodec ID/Hint : MP3\nDuration : 54mn 14s\nBit rate mode : Constant\nBit rate : 128 Kbps\nChannel(s) : 2 channels\nSampling rate : 48.0 KHz\nCompression mode : Lossy\nStream size : 49.7 MiB (12%)\nAlignment : Aligned on interleaves\nInterleave, duration : 24 ms (0.58 video frame)\nWriting library : LAME3.98ÅžÅžÅžÅžÅžÅžÅžÅžÅžÅžÅžÅž\n\n\n\nscreens &lt;a href=&quot;\nhttp://www.pohrani.com/f/5/d0/1Mx4seJK/screens.jpg&quot; rel=&quot;nofollow&quot; target=&quot;_NEW&quot;&gt;\nhttp://www.pohrani.com/f/5/d0/1Mx4seJK/screens.jpg&lt;/a&gt;\n\n","torrent":{"xt":"urn:btih:2dc2f00440d036e38db657797c76c9b6561c76ff","amp;dn":"True.Blood.S05E01.HDTV.XviD-Atilla82","amp;tr":["udp%3A%2F%2Ftracker.openbittorrent.com%3A80","udp%3A%2F%2Fopen.demonii.com%3A1337","udp%3A%2F%2Ftracker.coppersurfer.tk%3A6969","udp%3A%2F%2Fexodus.desync.com%3A6969"],"infoHash":"2dc2f00440d036e38db657797c76c9b6561c76ff","infoHashBuffer":{"type":"Buffer","data":[45,194,240,4,64,208,54,227,141,182,87,121,124,118,201,182,86,28,118,255]},"announce":[],"urlList":[]}}